<mxfile host="app.diagrams.net" agent="Mozilla/5.0 (Macintosh; Intel Mac OS X 10_15_7) AppleWebKit/605.1.15 (KHTML, like Gecko) Version/18.3 Safari/605.1.15" version="26.1.0">
  <diagram name="Page-1" id="b520641d-4fe3-3701-9064-5fc419738815">
    <mxGraphModel dx="4818" dy="1727" grid="1" gridSize="10" guides="1" tooltips="1" connect="1" arrows="1" fold="1" page="1" pageScale="1" pageWidth="1100" pageHeight="850" background="none" math="0" shadow="0">
      <root>
        <mxCell id="0" />
        <mxCell id="1" parent="0" />
        <mxCell id="pkZKWbX6Jo-3-2ZgabFj-10" value="" style="endArrow=none;html=1;rounded=0;" edge="1" parent="1">
          <mxGeometry width="50" height="50" relative="1" as="geometry">
            <mxPoint x="160" y="420" as="sourcePoint" />
            <mxPoint x="200" y="420" as="targetPoint" />
          </mxGeometry>
        </mxCell>
        <mxCell id="pkZKWbX6Jo-3-2ZgabFj-11" value="&lt;font style=&quot;font-size: 18px;&quot;&gt;Gennemgang af projektet&lt;/font&gt;" style="rounded=0;whiteSpace=wrap;html=1;" vertex="1" parent="1">
          <mxGeometry x="200" y="360" width="240" height="120" as="geometry" />
        </mxCell>
        <mxCell id="pkZKWbX6Jo-3-2ZgabFj-14" value="&lt;font style=&quot;font-size: 18px;&quot;&gt;0&lt;/font&gt;" style="rounded=0;whiteSpace=wrap;html=1;" vertex="1" parent="1">
          <mxGeometry x="200" y="360" width="80" height="40" as="geometry" />
        </mxCell>
        <mxCell id="pkZKWbX6Jo-3-2ZgabFj-16" value="&lt;font style=&quot;font-size: 18px;&quot;&gt;8&lt;/font&gt;" style="rounded=0;whiteSpace=wrap;html=1;" vertex="1" parent="1">
          <mxGeometry x="280" y="360" width="80" height="40" as="geometry" />
        </mxCell>
        <mxCell id="pkZKWbX6Jo-3-2ZgabFj-17" value="&lt;font style=&quot;font-size: 18px;&quot;&gt;8&lt;/font&gt;" style="rounded=0;whiteSpace=wrap;html=1;" vertex="1" parent="1">
          <mxGeometry x="360" y="360" width="80" height="40" as="geometry" />
        </mxCell>
        <mxCell id="pkZKWbX6Jo-3-2ZgabFj-18" value="&lt;font style=&quot;font-size: 18px;&quot;&gt;0&lt;/font&gt;" style="rounded=0;whiteSpace=wrap;html=1;" vertex="1" parent="1">
          <mxGeometry x="200" y="440" width="80" height="40" as="geometry" />
        </mxCell>
        <mxCell id="pkZKWbX6Jo-3-2ZgabFj-19" value="&lt;font style=&quot;font-size: 18px;&quot;&gt;0&lt;/font&gt;" style="rounded=0;whiteSpace=wrap;html=1;" vertex="1" parent="1">
          <mxGeometry x="280" y="440" width="80" height="40" as="geometry" />
        </mxCell>
        <mxCell id="pkZKWbX6Jo-3-2ZgabFj-20" value="&lt;font style=&quot;font-size: 18px;&quot;&gt;8&lt;/font&gt;" style="rounded=0;whiteSpace=wrap;html=1;" vertex="1" parent="1">
          <mxGeometry x="360" y="440" width="80" height="40" as="geometry" />
        </mxCell>
        <mxCell id="pkZKWbX6Jo-3-2ZgabFj-24" value="" style="endArrow=none;html=1;rounded=0;" edge="1" parent="1">
          <mxGeometry width="50" height="50" relative="1" as="geometry">
            <mxPoint x="480" y="425" as="sourcePoint" />
            <mxPoint x="480" y="260" as="targetPoint" />
          </mxGeometry>
        </mxCell>
        <mxCell id="pkZKWbX6Jo-3-2ZgabFj-28" value="" style="endArrow=none;html=1;rounded=0;exitX=0.75;exitY=1;exitDx=0;exitDy=0;" edge="1" parent="1">
          <mxGeometry width="50" height="50" relative="1" as="geometry">
            <mxPoint x="440" y="425" as="sourcePoint" />
            <mxPoint x="480" y="425" as="targetPoint" />
          </mxGeometry>
        </mxCell>
        <mxCell id="pkZKWbX6Jo-3-2ZgabFj-29" value="" style="endArrow=none;html=1;rounded=0;" edge="1" parent="1">
          <mxGeometry width="50" height="50" relative="1" as="geometry">
            <mxPoint x="480" y="580" as="sourcePoint" />
            <mxPoint x="480" y="425" as="targetPoint" />
          </mxGeometry>
        </mxCell>
        <mxCell id="pkZKWbX6Jo-3-2ZgabFj-30" value="&lt;font style=&quot;font-size: 18px;&quot;&gt;Opstilling af krav&lt;/font&gt;" style="rounded=0;whiteSpace=wrap;html=1;" vertex="1" parent="1">
          <mxGeometry x="520" y="200" width="240" height="120" as="geometry" />
        </mxCell>
        <mxCell id="pkZKWbX6Jo-3-2ZgabFj-31" value="&lt;font style=&quot;font-size: 18px;&quot;&gt;8&lt;/font&gt;" style="rounded=0;whiteSpace=wrap;html=1;" vertex="1" parent="1">
          <mxGeometry x="520" y="200" width="80" height="40" as="geometry" />
        </mxCell>
        <mxCell id="pkZKWbX6Jo-3-2ZgabFj-32" value="&lt;font style=&quot;font-size: 18px;&quot;&gt;20&lt;/font&gt;" style="rounded=0;whiteSpace=wrap;html=1;" vertex="1" parent="1">
          <mxGeometry x="600" y="200" width="80" height="40" as="geometry" />
        </mxCell>
        <mxCell id="pkZKWbX6Jo-3-2ZgabFj-33" value="&lt;font style=&quot;font-size: 18px;&quot;&gt;28&lt;/font&gt;" style="rounded=0;whiteSpace=wrap;html=1;" vertex="1" parent="1">
          <mxGeometry x="680" y="200" width="80" height="40" as="geometry" />
        </mxCell>
        <mxCell id="pkZKWbX6Jo-3-2ZgabFj-34" value="&lt;span style=&quot;font-size: 18px;&quot;&gt;8&lt;/span&gt;" style="rounded=0;whiteSpace=wrap;html=1;" vertex="1" parent="1">
          <mxGeometry x="520" y="280" width="80" height="40" as="geometry" />
        </mxCell>
        <mxCell id="pkZKWbX6Jo-3-2ZgabFj-35" value="&lt;span style=&quot;font-size: 18px;&quot;&gt;0&lt;/span&gt;" style="rounded=0;whiteSpace=wrap;html=1;" vertex="1" parent="1">
          <mxGeometry x="600" y="280" width="80" height="40" as="geometry" />
        </mxCell>
        <mxCell id="pkZKWbX6Jo-3-2ZgabFj-36" value="&lt;span style=&quot;font-size: 18px;&quot;&gt;28&lt;/span&gt;" style="rounded=0;whiteSpace=wrap;html=1;" vertex="1" parent="1">
          <mxGeometry x="680" y="280" width="80" height="40" as="geometry" />
        </mxCell>
        <mxCell id="pkZKWbX6Jo-3-2ZgabFj-37" value="" style="endArrow=none;html=1;rounded=0;" edge="1" parent="1">
          <mxGeometry width="50" height="50" relative="1" as="geometry">
            <mxPoint x="480" y="260" as="sourcePoint" />
            <mxPoint x="520" y="260" as="targetPoint" />
          </mxGeometry>
        </mxCell>
        <mxCell id="pkZKWbX6Jo-3-2ZgabFj-38" value="" style="endArrow=none;html=1;rounded=0;entryX=0;entryY=0.5;entryDx=0;entryDy=0;" edge="1" parent="1" target="pkZKWbX6Jo-3-2ZgabFj-131">
          <mxGeometry width="50" height="50" relative="1" as="geometry">
            <mxPoint x="480" y="579.41" as="sourcePoint" />
            <mxPoint x="1600" y="579" as="targetPoint" />
            <Array as="points">
              <mxPoint x="1020" y="579" />
            </Array>
          </mxGeometry>
        </mxCell>
        <mxCell id="pkZKWbX6Jo-3-2ZgabFj-72" value="&lt;font style=&quot;font-size: 18px;&quot;&gt;Strategi for projektet&lt;/font&gt;" style="rounded=0;whiteSpace=wrap;html=1;" vertex="1" parent="1">
          <mxGeometry x="800" y="200" width="240" height="120" as="geometry" />
        </mxCell>
        <mxCell id="pkZKWbX6Jo-3-2ZgabFj-73" value="&lt;font style=&quot;font-size: 18px;&quot;&gt;28&lt;/font&gt;" style="rounded=0;whiteSpace=wrap;html=1;" vertex="1" parent="1">
          <mxGeometry x="800" y="200" width="80" height="40" as="geometry" />
        </mxCell>
        <mxCell id="pkZKWbX6Jo-3-2ZgabFj-74" value="&lt;font style=&quot;font-size: 18px;&quot;&gt;6&lt;/font&gt;" style="rounded=0;whiteSpace=wrap;html=1;" vertex="1" parent="1">
          <mxGeometry x="880" y="200" width="80" height="40" as="geometry" />
        </mxCell>
        <mxCell id="pkZKWbX6Jo-3-2ZgabFj-75" value="&lt;font style=&quot;font-size: 18px;&quot;&gt;34&lt;/font&gt;" style="rounded=0;whiteSpace=wrap;html=1;" vertex="1" parent="1">
          <mxGeometry x="960" y="200" width="80" height="40" as="geometry" />
        </mxCell>
        <mxCell id="pkZKWbX6Jo-3-2ZgabFj-76" value="&lt;span style=&quot;font-size: 18px;&quot;&gt;28&lt;/span&gt;" style="rounded=0;whiteSpace=wrap;html=1;" vertex="1" parent="1">
          <mxGeometry x="800" y="280" width="80" height="40" as="geometry" />
        </mxCell>
        <mxCell id="pkZKWbX6Jo-3-2ZgabFj-77" value="&lt;span style=&quot;font-size: 18px;&quot;&gt;0&lt;/span&gt;" style="rounded=0;whiteSpace=wrap;html=1;" vertex="1" parent="1">
          <mxGeometry x="880" y="280" width="80" height="40" as="geometry" />
        </mxCell>
        <mxCell id="pkZKWbX6Jo-3-2ZgabFj-78" value="&lt;span style=&quot;font-size: 18px;&quot;&gt;34&lt;/span&gt;" style="rounded=0;whiteSpace=wrap;html=1;" vertex="1" parent="1">
          <mxGeometry x="960" y="280" width="80" height="40" as="geometry" />
        </mxCell>
        <mxCell id="pkZKWbX6Jo-3-2ZgabFj-79" value="" style="endArrow=none;html=1;rounded=0;" edge="1" parent="1">
          <mxGeometry width="50" height="50" relative="1" as="geometry">
            <mxPoint x="760" y="260" as="sourcePoint" />
            <mxPoint x="800" y="260" as="targetPoint" />
          </mxGeometry>
        </mxCell>
        <mxCell id="pkZKWbX6Jo-3-2ZgabFj-80" value="&lt;font style=&quot;font-size: 18px;&quot;&gt;Udvikling af software og datahÃ¥ndtering&lt;/font&gt;" style="rounded=0;whiteSpace=wrap;html=1;" vertex="1" parent="1">
          <mxGeometry x="1080" y="200" width="240" height="120" as="geometry" />
        </mxCell>
        <mxCell id="pkZKWbX6Jo-3-2ZgabFj-81" value="&lt;font size=&quot;3&quot;&gt;34&lt;/font&gt;" style="rounded=0;whiteSpace=wrap;html=1;" vertex="1" parent="1">
          <mxGeometry x="1080" y="200" width="80" height="40" as="geometry" />
        </mxCell>
        <mxCell id="pkZKWbX6Jo-3-2ZgabFj-82" value="&lt;font size=&quot;3&quot;&gt;104&lt;/font&gt;" style="rounded=0;whiteSpace=wrap;html=1;" vertex="1" parent="1">
          <mxGeometry x="1160" y="200" width="80" height="40" as="geometry" />
        </mxCell>
        <mxCell id="pkZKWbX6Jo-3-2ZgabFj-83" value="&lt;font size=&quot;3&quot;&gt;138&lt;/font&gt;" style="rounded=0;whiteSpace=wrap;html=1;" vertex="1" parent="1">
          <mxGeometry x="1240" y="200" width="80" height="40" as="geometry" />
        </mxCell>
        <mxCell id="pkZKWbX6Jo-3-2ZgabFj-84" value="&lt;span style=&quot;font-size: medium;&quot;&gt;34&lt;/span&gt;" style="rounded=0;whiteSpace=wrap;html=1;" vertex="1" parent="1">
          <mxGeometry x="1080" y="280" width="80" height="40" as="geometry" />
        </mxCell>
        <mxCell id="pkZKWbX6Jo-3-2ZgabFj-85" value="&lt;font style=&quot;font-size: 18px;&quot;&gt;0&lt;/font&gt;" style="rounded=0;whiteSpace=wrap;html=1;" vertex="1" parent="1">
          <mxGeometry x="1160" y="280" width="80" height="40" as="geometry" />
        </mxCell>
        <mxCell id="pkZKWbX6Jo-3-2ZgabFj-86" value="&lt;span style=&quot;font-size: medium;&quot;&gt;138&lt;/span&gt;" style="rounded=0;whiteSpace=wrap;html=1;" vertex="1" parent="1">
          <mxGeometry x="1240" y="280" width="80" height="40" as="geometry" />
        </mxCell>
        <mxCell id="pkZKWbX6Jo-3-2ZgabFj-87" value="" style="endArrow=none;html=1;rounded=0;" edge="1" parent="1">
          <mxGeometry width="50" height="50" relative="1" as="geometry">
            <mxPoint x="1040" y="260" as="sourcePoint" />
            <mxPoint x="1080" y="260" as="targetPoint" />
          </mxGeometry>
        </mxCell>
        <mxCell id="pkZKWbX6Jo-3-2ZgabFj-88" value="&lt;font style=&quot;font-size: 18px;&quot;&gt;Programmering af brugergrÃ¦nseflade og design&lt;/font&gt;" style="rounded=0;whiteSpace=wrap;html=1;" vertex="1" parent="1">
          <mxGeometry x="1360" y="200" width="240" height="120" as="geometry" />
        </mxCell>
        <mxCell id="pkZKWbX6Jo-3-2ZgabFj-89" value="&lt;font size=&quot;3&quot;&gt;138&lt;/font&gt;" style="rounded=0;whiteSpace=wrap;html=1;" vertex="1" parent="1">
          <mxGeometry x="1360" y="200" width="80" height="40" as="geometry" />
        </mxCell>
        <mxCell id="pkZKWbX6Jo-3-2ZgabFj-90" value="&lt;font size=&quot;3&quot;&gt;118&lt;/font&gt;" style="rounded=0;whiteSpace=wrap;html=1;" vertex="1" parent="1">
          <mxGeometry x="1440" y="200" width="80" height="40" as="geometry" />
        </mxCell>
        <mxCell id="pkZKWbX6Jo-3-2ZgabFj-91" value="&lt;font size=&quot;3&quot;&gt;256&lt;/font&gt;" style="rounded=0;whiteSpace=wrap;html=1;" vertex="1" parent="1">
          <mxGeometry x="1520" y="200" width="80" height="40" as="geometry" />
        </mxCell>
        <mxCell id="pkZKWbX6Jo-3-2ZgabFj-92" value="&lt;span style=&quot;font-size: medium;&quot;&gt;138&lt;/span&gt;" style="rounded=0;whiteSpace=wrap;html=1;" vertex="1" parent="1">
          <mxGeometry x="1360" y="280" width="80" height="40" as="geometry" />
        </mxCell>
        <mxCell id="pkZKWbX6Jo-3-2ZgabFj-93" value="&lt;font style=&quot;font-size: 18px;&quot;&gt;0&lt;/font&gt;" style="rounded=0;whiteSpace=wrap;html=1;" vertex="1" parent="1">
          <mxGeometry x="1440" y="280" width="80" height="40" as="geometry" />
        </mxCell>
        <mxCell id="pkZKWbX6Jo-3-2ZgabFj-94" value="&lt;span style=&quot;font-size: medium;&quot;&gt;256&lt;/span&gt;" style="rounded=0;whiteSpace=wrap;html=1;" vertex="1" parent="1">
          <mxGeometry x="1520" y="280" width="80" height="40" as="geometry" />
        </mxCell>
        <mxCell id="pkZKWbX6Jo-3-2ZgabFj-95" value="" style="endArrow=none;html=1;rounded=0;" edge="1" parent="1">
          <mxGeometry width="50" height="50" relative="1" as="geometry">
            <mxPoint x="1320" y="260" as="sourcePoint" />
            <mxPoint x="1360" y="260" as="targetPoint" />
          </mxGeometry>
        </mxCell>
        <mxCell id="pkZKWbX6Jo-3-2ZgabFj-96" value="&lt;font style=&quot;font-size: 18px;&quot;&gt;Test&lt;/font&gt;" style="rounded=0;whiteSpace=wrap;html=1;" vertex="1" parent="1">
          <mxGeometry x="1640" y="200" width="240" height="120" as="geometry" />
        </mxCell>
        <mxCell id="pkZKWbX6Jo-3-2ZgabFj-97" value="&lt;font size=&quot;3&quot;&gt;256&lt;/font&gt;" style="rounded=0;whiteSpace=wrap;html=1;" vertex="1" parent="1">
          <mxGeometry x="1640" y="200" width="80" height="40" as="geometry" />
        </mxCell>
        <mxCell id="pkZKWbX6Jo-3-2ZgabFj-98" value="&lt;font size=&quot;3&quot;&gt;15&lt;/font&gt;" style="rounded=0;whiteSpace=wrap;html=1;" vertex="1" parent="1">
          <mxGeometry x="1720" y="200" width="80" height="40" as="geometry" />
        </mxCell>
        <mxCell id="pkZKWbX6Jo-3-2ZgabFj-99" value="&lt;font style=&quot;font-size: 18px;&quot;&gt;271&lt;/font&gt;" style="rounded=0;whiteSpace=wrap;html=1;" vertex="1" parent="1">
          <mxGeometry x="1800" y="200" width="80" height="40" as="geometry" />
        </mxCell>
        <mxCell id="pkZKWbX6Jo-3-2ZgabFj-100" value="&lt;span style=&quot;font-size: medium;&quot;&gt;256&lt;/span&gt;" style="rounded=0;whiteSpace=wrap;html=1;" vertex="1" parent="1">
          <mxGeometry x="1640" y="280" width="80" height="40" as="geometry" />
        </mxCell>
        <mxCell id="pkZKWbX6Jo-3-2ZgabFj-101" value="&lt;font style=&quot;font-size: 18px;&quot;&gt;0&lt;/font&gt;" style="rounded=0;whiteSpace=wrap;html=1;" vertex="1" parent="1">
          <mxGeometry x="1720" y="280" width="80" height="40" as="geometry" />
        </mxCell>
        <mxCell id="pkZKWbX6Jo-3-2ZgabFj-102" value="&lt;span style=&quot;font-size: 18px;&quot;&gt;271&lt;/span&gt;" style="rounded=0;whiteSpace=wrap;html=1;" vertex="1" parent="1">
          <mxGeometry x="1800" y="280" width="80" height="40" as="geometry" />
        </mxCell>
        <mxCell id="pkZKWbX6Jo-3-2ZgabFj-103" value="" style="endArrow=none;html=1;rounded=0;" edge="1" parent="1">
          <mxGeometry width="50" height="50" relative="1" as="geometry">
            <mxPoint x="1600" y="260" as="sourcePoint" />
            <mxPoint x="1640" y="260" as="targetPoint" />
          </mxGeometry>
        </mxCell>
        <mxCell id="pkZKWbX6Jo-3-2ZgabFj-104" value="&lt;font style=&quot;font-size: 18px;&quot;&gt;Implementering&lt;/font&gt;" style="rounded=0;whiteSpace=wrap;html=1;" vertex="1" parent="1">
          <mxGeometry x="1920" y="200" width="240" height="120" as="geometry" />
        </mxCell>
        <mxCell id="pkZKWbX6Jo-3-2ZgabFj-105" value="&lt;font size=&quot;3&quot;&gt;271&lt;/font&gt;" style="rounded=0;whiteSpace=wrap;html=1;" vertex="1" parent="1">
          <mxGeometry x="1920" y="200" width="80" height="40" as="geometry" />
        </mxCell>
        <mxCell id="pkZKWbX6Jo-3-2ZgabFj-106" value="&lt;font size=&quot;3&quot;&gt;22&lt;/font&gt;" style="rounded=0;whiteSpace=wrap;html=1;" vertex="1" parent="1">
          <mxGeometry x="2000" y="200" width="80" height="40" as="geometry" />
        </mxCell>
        <mxCell id="pkZKWbX6Jo-3-2ZgabFj-107" value="&lt;font style=&quot;font-size: 18px;&quot;&gt;293&lt;/font&gt;" style="rounded=0;whiteSpace=wrap;html=1;" vertex="1" parent="1">
          <mxGeometry x="2080" y="200" width="80" height="40" as="geometry" />
        </mxCell>
        <mxCell id="pkZKWbX6Jo-3-2ZgabFj-108" value="&lt;span style=&quot;font-size: medium;&quot;&gt;271&lt;/span&gt;" style="rounded=0;whiteSpace=wrap;html=1;" vertex="1" parent="1">
          <mxGeometry x="1920" y="280" width="80" height="40" as="geometry" />
        </mxCell>
        <mxCell id="pkZKWbX6Jo-3-2ZgabFj-109" value="&lt;font style=&quot;font-size: 18px;&quot;&gt;0&lt;/font&gt;" style="rounded=0;whiteSpace=wrap;html=1;" vertex="1" parent="1">
          <mxGeometry x="2000" y="280" width="80" height="40" as="geometry" />
        </mxCell>
        <mxCell id="pkZKWbX6Jo-3-2ZgabFj-110" value="&lt;span style=&quot;font-size: 18px;&quot;&gt;293&lt;/span&gt;" style="rounded=0;whiteSpace=wrap;html=1;" vertex="1" parent="1">
          <mxGeometry x="2080" y="280" width="80" height="40" as="geometry" />
        </mxCell>
        <mxCell id="pkZKWbX6Jo-3-2ZgabFj-111" value="" style="endArrow=none;html=1;rounded=0;" edge="1" parent="1">
          <mxGeometry width="50" height="50" relative="1" as="geometry">
            <mxPoint x="1880" y="260" as="sourcePoint" />
            <mxPoint x="1920" y="260" as="targetPoint" />
          </mxGeometry>
        </mxCell>
        <mxCell id="pkZKWbX6Jo-3-2ZgabFj-112" value="&lt;font style=&quot;font-size: 18px;&quot;&gt;Brugervejledning&lt;/font&gt;" style="rounded=0;whiteSpace=wrap;html=1;" vertex="1" parent="1">
          <mxGeometry x="2200" y="200" width="240" height="120" as="geometry" />
        </mxCell>
        <mxCell id="pkZKWbX6Jo-3-2ZgabFj-113" value="&lt;font style=&quot;font-size: 18px;&quot;&gt;293&lt;/font&gt;" style="rounded=0;whiteSpace=wrap;html=1;" vertex="1" parent="1">
          <mxGeometry x="2200" y="200" width="80" height="40" as="geometry" />
        </mxCell>
        <mxCell id="pkZKWbX6Jo-3-2ZgabFj-114" value="&lt;font style=&quot;font-size: 18px;&quot;&gt;7&lt;/font&gt;" style="rounded=0;whiteSpace=wrap;html=1;" vertex="1" parent="1">
          <mxGeometry x="2280" y="200" width="80" height="40" as="geometry" />
        </mxCell>
        <mxCell id="pkZKWbX6Jo-3-2ZgabFj-115" value="&lt;font style=&quot;font-size: 18px;&quot;&gt;300&lt;/font&gt;" style="rounded=0;whiteSpace=wrap;html=1;" vertex="1" parent="1">
          <mxGeometry x="2360" y="200" width="80" height="40" as="geometry" />
        </mxCell>
        <mxCell id="pkZKWbX6Jo-3-2ZgabFj-116" value="&lt;font style=&quot;font-size: 18px;&quot;&gt;293&lt;/font&gt;" style="rounded=0;whiteSpace=wrap;html=1;" vertex="1" parent="1">
          <mxGeometry x="2200" y="280" width="80" height="40" as="geometry" />
        </mxCell>
        <mxCell id="pkZKWbX6Jo-3-2ZgabFj-117" value="&lt;font style=&quot;font-size: 18px;&quot;&gt;0&lt;/font&gt;" style="rounded=0;whiteSpace=wrap;html=1;" vertex="1" parent="1">
          <mxGeometry x="2280" y="280" width="80" height="40" as="geometry" />
        </mxCell>
        <mxCell id="pkZKWbX6Jo-3-2ZgabFj-118" value="&lt;font style=&quot;font-size: 18px;&quot;&gt;300&lt;/font&gt;" style="rounded=0;whiteSpace=wrap;html=1;" vertex="1" parent="1">
          <mxGeometry x="2360" y="280" width="80" height="40" as="geometry" />
        </mxCell>
        <mxCell id="pkZKWbX6Jo-3-2ZgabFj-119" value="" style="endArrow=none;html=1;rounded=0;" edge="1" parent="1">
          <mxGeometry width="50" height="50" relative="1" as="geometry">
            <mxPoint x="2160" y="260" as="sourcePoint" />
            <mxPoint x="2200" y="260" as="targetPoint" />
          </mxGeometry>
        </mxCell>
        <mxCell id="pkZKWbX6Jo-3-2ZgabFj-120" value="&lt;font style=&quot;font-size: 18px;&quot;&gt;Evaluering og dokumentation af projektet&lt;/font&gt;" style="rounded=0;whiteSpace=wrap;html=1;" vertex="1" parent="1">
          <mxGeometry x="2200" y="360" width="240" height="120" as="geometry" />
        </mxCell>
        <mxCell id="pkZKWbX6Jo-3-2ZgabFj-121" value="&lt;font style=&quot;font-size: 18px;&quot;&gt;293&lt;/font&gt;" style="rounded=0;whiteSpace=wrap;html=1;" vertex="1" parent="1">
          <mxGeometry x="2200" y="360" width="80" height="40" as="geometry" />
        </mxCell>
        <mxCell id="pkZKWbX6Jo-3-2ZgabFj-122" value="&lt;font style=&quot;font-size: 18px;&quot;&gt;4&lt;/font&gt;" style="rounded=0;whiteSpace=wrap;html=1;" vertex="1" parent="1">
          <mxGeometry x="2280" y="360" width="80" height="40" as="geometry" />
        </mxCell>
        <mxCell id="pkZKWbX6Jo-3-2ZgabFj-123" value="&lt;font style=&quot;font-size: 18px;&quot;&gt;297&lt;/font&gt;" style="rounded=0;whiteSpace=wrap;html=1;" vertex="1" parent="1">
          <mxGeometry x="2360" y="360" width="80" height="40" as="geometry" />
        </mxCell>
        <mxCell id="pkZKWbX6Jo-3-2ZgabFj-124" value="&lt;font style=&quot;font-size: 18px;&quot;&gt;296&lt;/font&gt;" style="rounded=0;whiteSpace=wrap;html=1;" vertex="1" parent="1">
          <mxGeometry x="2200" y="440" width="80" height="40" as="geometry" />
        </mxCell>
        <mxCell id="pkZKWbX6Jo-3-2ZgabFj-125" value="&lt;font style=&quot;font-size: 18px;&quot;&gt;3&lt;/font&gt;" style="rounded=0;whiteSpace=wrap;html=1;" vertex="1" parent="1">
          <mxGeometry x="2280" y="440" width="80" height="40" as="geometry" />
        </mxCell>
        <mxCell id="pkZKWbX6Jo-3-2ZgabFj-126" value="&lt;font style=&quot;font-size: 18px;&quot;&gt;300&lt;/font&gt;" style="rounded=0;whiteSpace=wrap;html=1;" vertex="1" parent="1">
          <mxGeometry x="2360" y="440" width="80" height="40" as="geometry" />
        </mxCell>
        <mxCell id="pkZKWbX6Jo-3-2ZgabFj-127" value="" style="endArrow=none;html=1;rounded=0;" edge="1" parent="1">
          <mxGeometry width="50" height="50" relative="1" as="geometry">
            <mxPoint x="2040" y="425" as="sourcePoint" />
            <mxPoint x="2200" y="425" as="targetPoint" />
          </mxGeometry>
        </mxCell>
        <mxCell id="pkZKWbX6Jo-3-2ZgabFj-128" value="" style="endArrow=none;html=1;rounded=0;" edge="1" parent="1">
          <mxGeometry width="50" height="50" relative="1" as="geometry">
            <mxPoint x="2039.72" y="425" as="sourcePoint" />
            <mxPoint x="2040" y="320" as="targetPoint" />
          </mxGeometry>
        </mxCell>
        <mxCell id="pkZKWbX6Jo-3-2ZgabFj-131" value="&lt;font style=&quot;font-size: 16px;&quot;&gt;Beskrivelse af softwareudvikling og udformning af rapport&lt;/font&gt;" style="rounded=0;whiteSpace=wrap;html=1;" vertex="1" parent="1">
          <mxGeometry x="1640" y="520" width="240" height="120" as="geometry" />
        </mxCell>
        <mxCell id="pkZKWbX6Jo-3-2ZgabFj-132" value="&lt;font style=&quot;font-size: 18px;&quot;&gt;8&lt;/font&gt;" style="rounded=0;whiteSpace=wrap;html=1;" vertex="1" parent="1">
          <mxGeometry x="1640" y="520" width="80" height="40" as="geometry" />
        </mxCell>
        <mxCell id="pkZKWbX6Jo-3-2ZgabFj-133" value="&lt;font style=&quot;font-size: 18px;&quot;&gt;45&lt;/font&gt;" style="rounded=0;whiteSpace=wrap;html=1;" vertex="1" parent="1">
          <mxGeometry x="1720" y="520" width="80" height="40" as="geometry" />
        </mxCell>
        <mxCell id="pkZKWbX6Jo-3-2ZgabFj-134" value="&lt;font style=&quot;font-size: 18px;&quot;&gt;53&lt;/font&gt;" style="rounded=0;whiteSpace=wrap;html=1;" vertex="1" parent="1">
          <mxGeometry x="1800" y="520" width="80" height="40" as="geometry" />
        </mxCell>
        <mxCell id="pkZKWbX6Jo-3-2ZgabFj-135" value="&lt;font style=&quot;font-size: 18px;&quot;&gt;255&lt;/font&gt;" style="rounded=0;whiteSpace=wrap;html=1;" vertex="1" parent="1">
          <mxGeometry x="1640" y="600" width="80" height="40" as="geometry" />
        </mxCell>
        <mxCell id="pkZKWbX6Jo-3-2ZgabFj-136" value="&lt;font style=&quot;font-size: 18px;&quot;&gt;247&lt;/font&gt;" style="rounded=0;whiteSpace=wrap;html=1;" vertex="1" parent="1">
          <mxGeometry x="1720" y="600" width="80" height="40" as="geometry" />
        </mxCell>
        <mxCell id="pkZKWbX6Jo-3-2ZgabFj-137" value="&lt;font style=&quot;font-size: 18px;&quot;&gt;300&lt;/font&gt;" style="rounded=0;whiteSpace=wrap;html=1;" vertex="1" parent="1">
          <mxGeometry x="1800" y="600" width="80" height="40" as="geometry" />
        </mxCell>
        <mxCell id="pkZKWbX6Jo-3-2ZgabFj-138" value="&lt;font style=&quot;font-size: 18px;&quot;&gt;Projekt afsluttet&lt;/font&gt;" style="rounded=0;whiteSpace=wrap;html=1;" vertex="1" parent="1">
          <mxGeometry x="2560" y="400" width="240" height="40" as="geometry" />
        </mxCell>
        <mxCell id="pkZKWbX6Jo-3-2ZgabFj-139" value="&lt;font style=&quot;font-size: 18px;&quot;&gt;Projekt start&amp;nbsp;&lt;/font&gt;" style="rounded=0;whiteSpace=wrap;html=1;" vertex="1" parent="1">
          <mxGeometry x="-80" y="400" width="240" height="40" as="geometry" />
        </mxCell>
        <mxCell id="pkZKWbX6Jo-3-2ZgabFj-140" value="" style="endArrow=none;html=1;rounded=0;fillColor=#FF0000;" edge="1" parent="1">
          <mxGeometry width="50" height="50" relative="1" as="geometry">
            <mxPoint x="2440" y="259.16999999999996" as="sourcePoint" />
            <mxPoint x="2680" y="259" as="targetPoint" />
          </mxGeometry>
        </mxCell>
        <mxCell id="pkZKWbX6Jo-3-2ZgabFj-141" value="" style="endArrow=none;html=1;rounded=0;" edge="1" parent="1">
          <mxGeometry width="50" height="50" relative="1" as="geometry">
            <mxPoint x="2440" y="423" as="sourcePoint" />
            <mxPoint x="2560" y="423" as="targetPoint" />
          </mxGeometry>
        </mxCell>
        <mxCell id="pkZKWbX6Jo-3-2ZgabFj-142" value="" style="endArrow=none;html=1;rounded=0;exitX=0.5;exitY=0;exitDx=0;exitDy=0;" edge="1" parent="1" source="pkZKWbX6Jo-3-2ZgabFj-138">
          <mxGeometry width="50" height="50" relative="1" as="geometry">
            <mxPoint x="2679.2900000000004" y="365" as="sourcePoint" />
            <mxPoint x="2679.57" y="260" as="targetPoint" />
          </mxGeometry>
        </mxCell>
        <mxCell id="pkZKWbX6Jo-3-2ZgabFj-143" value="" style="endArrow=none;html=1;rounded=0;" edge="1" parent="1">
          <mxGeometry width="50" height="50" relative="1" as="geometry">
            <mxPoint x="1880" y="578.92" as="sourcePoint" />
            <mxPoint x="2680" y="579" as="targetPoint" />
          </mxGeometry>
        </mxCell>
        <mxCell id="pkZKWbX6Jo-3-2ZgabFj-144" value="" style="endArrow=none;html=1;rounded=0;exitX=0.5;exitY=0;exitDx=0;exitDy=0;" edge="1" parent="1">
          <mxGeometry width="50" height="50" relative="1" as="geometry">
            <mxPoint x="2679.18" y="580" as="sourcePoint" />
            <mxPoint x="2678.75" y="440" as="targetPoint" />
          </mxGeometry>
        </mxCell>
      </root>
    </mxGraphModel>
  </diagram>
</mxfile>
